<svg id="Capa_1" enable-background="new 0 0 512.002 512.002" height="512" viewBox="0 0 512.002 512.002" width="512" xmlns="http://www.w3.org/2000/svg"><g><g><g><path d="m440.45 114.303c-6.961 0-366.963 0-368.981 0-19.219 0-34.855 15.636-34.855 34.856v261.446c0 16.999 12.597 31.73 29.36 34.416l6.278 5.012h362l11.695-5.012c16.763-2.686 29.36-17.417 29.36-34.416 0-8.699 0-253.578 0-261.446-.002-19.22-15.638-34.856-34.857-34.856z" fill="#3f6d8e"/><path d="m69.863 410.605v-261.446c0-19.22 15.636-34.856 34.855-34.856-20.297 0-32.877 0-33.25 0-19.219 0-34.855 15.636-34.855 34.856v261.446c0 16.999 12.597 31.73 29.36 34.416l6.278 5.012h33.25l-6.278-5.012c-16.764-2.686-29.36-17.417-29.36-34.416z" fill="#365e7d"/><path d="m439.75 175.867h-365.5l-6.325 6.603v225.268c0 3.454 2.8 6.254 6.253 6.254h363.561c3.453 0 6.253-2.8 6.253-6.254 0-5.906 0-218.433 0-225.268z" fill="#e4f6ff"/><path d="m108.576 407.738v-225.268l6.325-6.603h-40.651l-6.325 6.603v225.268c0 3.454 2.8 6.254 6.253 6.254h40.651c-3.453 0-6.253-2.801-6.253-6.254z" fill="#d3effb"/><path d="m108.576 145.381h-34.398c-3.453 0-6.253 2.8-6.253 6.254v30.834h40.651l2.674-2.853v-32.25z" fill="#dd636e"/><path d="m437.739 145.381c-16.149 0-316.364 0-329.163 0v37.088h335.416v-30.834c0-3.453-2.8-6.254-6.253-6.254z" fill="#b1e4f9"/><path d="m498.64 445.021h-485.363c-3.214 0-5.82 2.631-5.82 5.876v20.213c0 14.998 12.152 27.269 27.005 27.269h442.992c14.853 0 27.005-12.271 27.005-27.269v-20.213c0-3.245-2.605-5.876-5.819-5.876z" fill="#407093"/><path d="m67.925 471.111v-20.213c0-3.246 2.605-5.876 5.82-5.876h-60.468c-3.214 0-5.82 2.631-5.82 5.876v20.213c0 14.998 12.152 27.269 27.005 27.269h60.468c-14.852 0-27.005-12.271-27.005-27.269z" fill="#365e7d"/><path d="m183.466 445.021v13.561c0 6.665 5.4 12.119 12.001 12.119h120.984c6.601 0 12.001-5.454 12.001-12.119v-13.561z" fill="#5c90b9"/><path d="m243.933 458.582v-13.561h-60.468v13.561c0 6.665 5.4 12.119 12.001 12.119h60.468c-6.6 0-12.001-5.453-12.001-12.119z" fill="#4a80aa"/></g><path d="m126.634 14.287h174.982c15.605 0 28.256 12.65 28.256 28.256v81.884c0 15.605-12.65 28.256-28.256 28.256h-103.382c-7.059 0-12.782 5.723-12.782 12.782v18.252c0 6.701-8.014 10.154-12.884 5.55l-35.01-33.092c-2.373-2.243-5.515-3.493-8.78-3.493h-2.144c-15.605 0-28.256-12.651-28.256-28.256v-81.883c0-15.605 12.651-28.256 28.256-28.256z" fill="#fff0af"/><path d="m385.282 211.183h-174.981c-15.605 0-28.256 12.65-28.256 28.256v81.884c0 15.605 12.65 28.256 28.256 28.256h103.381c7.059 0 12.782 5.723 12.782 12.782v18.252c0 6.701 8.014 10.154 12.884 5.55l35.01-33.092c2.373-2.243 5.515-3.493 8.78-3.493h2.144c15.605 0 28.256-12.651 28.256-28.256v-81.884c0-15.605-12.65-28.255-28.256-28.255z" fill="#dd636e"/><path d="m179.392 156.176c-2.373-2.243-5.515-3.493-8.78-3.493h-2.144c-15.605 0-28.256-12.651-28.256-28.256v-81.884c0-15.605 12.65-28.256 28.256-28.256h-41.833c-15.605 0-28.256 12.651-28.256 28.256v81.884c0 15.605 12.651 28.256 28.256 28.256h2.144c3.265 0 6.407 1.25 8.781 3.493l35.01 33.092c4.87 4.603 12.884 1.151 12.884-5.551v-18.252c0-1.097.153-2.155.413-3.171z" fill="#ffe07d"/><g fill="#da4a54"><path d="m223.879 321.323v-81.884c0-15.605 12.65-28.256 28.256-28.256h-41.833c-15.605 0-28.256 12.651-28.256 28.256v81.884c0 15.605 12.651 28.256 28.256 28.256h41.833c-15.606-.001-28.256-12.651-28.256-28.256z"/><path d="m355.516 349.578h-41.834c7.06 0 12.782 5.723 12.782 12.782v18.252c0 6.701 8.014 10.154 12.884 5.55l28.537-26.973c-1.412-5.522-6.407-9.611-12.369-9.611z"/></g></g><g><path d="m498.683 437.188h-25.644c6.131-7.405 9.809-16.846 9.809-26.916v-99.72c0-4.143-3.357-7.5-7.5-7.5s-7.5 3.357-7.5 7.5v99.72c0 13.107-9.631 24.579-22.494 26.916-17.196 0-367.582 0-378.704 0-12.863-2.337-22.494-13.809-22.494-26.916v-261.446c0-15.084 12.271-27.355 27.355-27.355h19.41v2.624c0 4.758.942 9.298 2.636 13.454h-19.335c-7.584 0-13.754 6.17-13.754 13.754v256.103c0 7.584 6.17 13.754 13.754 13.754h363.561c7.583 0 13.753-6.17 13.753-13.754 0-7.864 0-243.363 0-256.103 0-7.584-6.17-13.754-13.753-13.754h-103.004c1.695-4.156 2.636-8.696 2.636-13.454v-2.624h103.077c15.084 0 27.355 12.271 27.355 27.355v126.727c0 4.143 3.357 7.5 7.5 7.5s7.5-3.357 7.5-7.5v-126.727c0-23.354-19.001-42.355-42.355-42.355h-103.077v-64.261c0-19.715-16.04-35.755-35.756-35.755h-69.991c-4.143 0-7.5 3.357-7.5 7.5s3.357 7.5 7.5 7.5h69.991c11.445 0 20.756 9.311 20.756 20.755v81.885c0 11.521-9.434 20.756-20.756 20.756h-103.382c-11.184 0-20.282 9.099-20.282 20.282 0 18.737-.002 18.329-.002 18.329-.042.038-.136.079-.15.086-.018 0-35.076-33.144-35.09-33.156-4.997-4.715-10.102-5.541-16.076-5.541-11.217 0-20.755-9.168-20.755-20.756v-81.885c0-11.444 9.311-20.755 20.755-20.755h69.991c4.143 0 7.5-3.357 7.5-7.5s-3.357-7.5-7.5-7.5h-69.991c-19.715 0-35.755 16.04-35.755 35.755v64.261h-19.411c-23.354 0-42.355 19.001-42.355 42.355v261.446c0 10.07 3.677 19.511 9.809 26.916h-25.645c-7.345 0-13.32 6.001-13.32 13.377v20.213c0 19.172 15.479 34.769 34.506 34.769h442.991c19.026 0 34.505-15.597 34.505-34.769v-20.213c0-7.376-5.975-13.377-13.319-13.377zm-305.688-272.055c0-2.913 2.369-5.282 5.282-5.282h103.382c7.804 0 15.442-2.569 21.652-7.302h113.224v22.088h-243.54zm-76.876-6.875c5.569 1.725 10.1 1.592 12.702 1.592 1.355 0 2.645.513 3.629 1.443 5.299 5.009 8.33 7.873 14.116 13.343h-30.447zm46.317 31.379 5.023 4.748c7.624 7.209 19.952 4.588 24.188-4.748h244.889v216.522h-361.068v-216.522zm-61.317-15h-25.651v-22.088h25.651zm89.89 277.551h129.985v6.062c0 2.503-2.062 4.618-4.501 4.618h-120.983c-2.439 0-4.501-2.115-4.501-4.618zm305.993 18.59c0 10.9-8.75 19.769-19.505 19.769h-442.991c-10.756 0-19.506-8.868-19.506-19.769v-18.59h161.009v6.062c0 10.817 8.748 19.618 19.501 19.618h120.983c10.753 0 19.501-8.801 19.501-19.618v-6.062h161.008z"/><path d="m210.344 356.746h103.382c2.913 0 5.282 2.369 5.282 5.282v18.252c0 13.294 15.938 20.072 25.536 11l35.01-33.092c1.768-1.671 3.53-1.442 5.771-1.442 19.716 0 35.756-16.04 35.756-35.756v-81.885c0-19.715-16.04-35.755-35.756-35.755h-174.981c-19.716 0-35.756 16.04-35.756 35.755v81.885c0 19.716 16.04 35.756 35.756 35.756zm-20.756-117.641c0-11.444 9.312-20.755 20.756-20.755h174.981c11.445 0 20.756 9.311 20.756 20.755v81.885c0 11.444-9.311 20.756-20.756 20.756-2.903 0-9.779-.41-16.076 5.542l-35.01 33.092c-.03.028-.052.046-.058.052-.057-.004-.15-.045-.166-.051 0 0-.008-.03-.008-.101v-18.252c0-11.184-9.099-20.282-20.282-20.282h-103.381c-11.444 0-20.756-9.312-20.756-20.756z"/><path d="m283.878 46.422h-139.419c-4.143 0-7.5 3.357-7.5 7.5s3.357 7.5 7.5 7.5h139.419c4.143 0 7.5-3.357 7.5-7.5s-3.357-7.5-7.5-7.5z"/><path d="m283.878 76.441h-139.419c-4.143 0-7.5 3.357-7.5 7.5s3.357 7.5 7.5 7.5h139.419c4.143 0 7.5-3.357 7.5-7.5s-3.357-7.5-7.5-7.5z"/><path d="m283.878 106.46h-139.419c-4.143 0-7.5 3.357-7.5 7.5s3.357 7.5 7.5 7.5h139.419c4.143 0 7.5-3.357 7.5-7.5s-3.357-7.5-7.5-7.5z"/><path d="m228.125 258.811h139.419c4.143 0 7.5-3.357 7.5-7.5s-3.357-7.5-7.5-7.5h-139.419c-4.143 0-7.5 3.357-7.5 7.5s3.357 7.5 7.5 7.5z"/><path d="m228.125 288.83h139.419c4.143 0 7.5-3.357 7.5-7.5s-3.357-7.5-7.5-7.5h-139.419c-4.143 0-7.5 3.357-7.5 7.5s3.357 7.5 7.5 7.5z"/><path d="m228.125 318.849h139.419c4.143 0 7.5-3.357 7.5-7.5s-3.357-7.5-7.5-7.5h-139.419c-4.143 0-7.5 3.357-7.5 7.5s3.357 7.5 7.5 7.5z"/></g></g></svg>